G04 #@! TF.GenerationSoftware,KiCad,Pcbnew,7.0.1*
G04 #@! TF.CreationDate,2023-03-20T20:32:41+09:00*
G04 #@! TF.ProjectId,bridgeDSUB9P,62726964-6765-4445-9355-4239502e6b69,V1.0*
G04 #@! TF.SameCoordinates,Original*
G04 #@! TF.FileFunction,Copper,L2,Bot*
G04 #@! TF.FilePolarity,Positive*
%FSLAX46Y46*%
G04 Gerber Fmt 4.6, Leading zero omitted, Abs format (unit mm)*
G04 Created by KiCad (PCBNEW 7.0.1) date 2023-03-20 20:32:41*
%MOMM*%
%LPD*%
G01*
G04 APERTURE LIST*
G04 Aperture macros list*
%AMRoundRect*
0 Rectangle with rounded corners*
0 $1 Rounding radius*
0 $2 $3 $4 $5 $6 $7 $8 $9 X,Y pos of 4 corners*
0 Add a 4 corners polygon primitive as box body*
4,1,4,$2,$3,$4,$5,$6,$7,$8,$9,$2,$3,0*
0 Add four circle primitives for the rounded corners*
1,1,$1+$1,$2,$3*
1,1,$1+$1,$4,$5*
1,1,$1+$1,$6,$7*
1,1,$1+$1,$8,$9*
0 Add four rect primitives between the rounded corners*
20,1,$1+$1,$2,$3,$4,$5,0*
20,1,$1+$1,$4,$5,$6,$7,0*
20,1,$1+$1,$6,$7,$8,$9,0*
20,1,$1+$1,$8,$9,$2,$3,0*%
G04 Aperture macros list end*
G04 #@! TA.AperFunction,ComponentPad*
%ADD10C,1.600000*%
G04 #@! TD*
G04 #@! TA.AperFunction,SMDPad,CuDef*
%ADD11RoundRect,0.375000X0.375000X-1.125000X0.375000X1.125000X-0.375000X1.125000X-0.375000X-1.125000X0*%
G04 #@! TD*
G04 #@! TA.AperFunction,SMDPad,CuDef*
%ADD12RoundRect,0.375000X-0.375000X1.125000X-0.375000X-1.125000X0.375000X-1.125000X0.375000X1.125000X0*%
G04 #@! TD*
G04 #@! TA.AperFunction,ViaPad*
%ADD13C,0.609600*%
G04 #@! TD*
G04 #@! TA.AperFunction,Conductor*
%ADD14C,0.304800*%
G04 #@! TD*
G04 APERTURE END LIST*
D10*
X8000000Y0D03*
X-4000000Y0D03*
X4000000Y0D03*
X0Y0D03*
X-8000000Y0D03*
D11*
X4155000Y-7000000D03*
X1385000Y-7000000D03*
X-1385000Y-7000000D03*
X-4155000Y-7000000D03*
D10*
X-2000000Y0D03*
X6000000Y0D03*
X2000000Y0D03*
D12*
X-4155000Y7000000D03*
X-1385000Y7000000D03*
X1385000Y7000000D03*
X4155000Y7000000D03*
D10*
X-6000000Y0D03*
D13*
X-6000000Y-3500000D03*
X-5000000Y-3500000D03*
X-4000000Y-3500000D03*
X-3000000Y-3500000D03*
X-2000000Y-3500000D03*
X3500000Y-3500000D03*
X4500000Y-3500000D03*
X5500000Y-3500000D03*
X6500000Y-3500000D03*
D14*
X-8000000Y0D02*
X-8000000Y-1500000D01*
X-8000000Y-1500000D02*
X-6000000Y-3500000D01*
X-6000000Y0D02*
X-6000000Y-2500000D01*
X-6000000Y-2500000D02*
X-5000000Y-3500000D01*
X-4000000Y0D02*
X-4000000Y-3500000D01*
X-2000000Y0D02*
X-2000000Y-2500000D01*
X-2000000Y-2500000D02*
X-3000000Y-3500000D01*
X0Y-1500000D02*
X-2000000Y-3500000D01*
X0Y0D02*
X0Y-1500000D01*
X-4155000Y7000000D02*
X-4155000Y6155000D01*
X-4155000Y6155000D02*
X2000000Y0D01*
X4155000Y-7000000D02*
X4155000Y-4155000D01*
X4155000Y-4155000D02*
X3500000Y-3500000D01*
X1385000Y-7000000D02*
X1385000Y-4681053D01*
X1385000Y-4681053D02*
X3226453Y-2839600D01*
X3807500Y0D02*
X4000000Y0D01*
X3839600Y-2839600D02*
X4500000Y-3500000D01*
X-1385000Y5192500D02*
X3807500Y0D01*
X-1385000Y7000000D02*
X-1385000Y5192500D01*
X3226453Y-2839600D02*
X3839600Y-2839600D01*
X-1385000Y-7000000D02*
X-1385000Y-6732633D01*
X-1385000Y-6732633D02*
X3016033Y-2331600D01*
X1385000Y7000000D02*
X1385000Y4615000D01*
X1385000Y4615000D02*
X6000000Y0D01*
X3016033Y-2331600D02*
X4331600Y-2331600D01*
X4331600Y-2331600D02*
X5500000Y-3500000D01*
X4155000Y7000000D02*
X4155000Y3845000D01*
X4823601Y-1823601D02*
X6500000Y-3500000D01*
X4155000Y3845000D02*
X8000000Y0D01*
X1021399Y-1823601D02*
X4823601Y-1823601D01*
X-4155000Y-7000000D02*
X1021399Y-1823601D01*
M02*
