G04 #@! TF.GenerationSoftware,KiCad,Pcbnew,7.0.1*
G04 #@! TF.CreationDate,2023-03-20T20:32:41+09:00*
G04 #@! TF.ProjectId,bridgeDSUB9P,62726964-6765-4445-9355-4239502e6b69,V1.0*
G04 #@! TF.SameCoordinates,Original*
G04 #@! TF.FileFunction,Legend,Top*
G04 #@! TF.FilePolarity,Positive*
%FSLAX46Y46*%
G04 Gerber Fmt 4.6, Leading zero omitted, Abs format (unit mm)*
G04 Created by KiCad (PCBNEW 7.0.1) date 2023-03-20 20:32:41*
%MOMM*%
%LPD*%
G01*
G04 APERTURE LIST*
%ADD10C,0.150000*%
G04 APERTURE END LIST*
D10*
X3666667Y-1462619D02*
X4333333Y-1462619D01*
X4333333Y-1462619D02*
X3904762Y-2462619D01*
X2190476Y-1462619D02*
X2000000Y-1462619D01*
X2000000Y-1462619D02*
X1904762Y-1510238D01*
X1904762Y-1510238D02*
X1857143Y-1557857D01*
X1857143Y-1557857D02*
X1761905Y-1700714D01*
X1761905Y-1700714D02*
X1714286Y-1891190D01*
X1714286Y-1891190D02*
X1714286Y-2272142D01*
X1714286Y-2272142D02*
X1761905Y-2367380D01*
X1761905Y-2367380D02*
X1809524Y-2415000D01*
X1809524Y-2415000D02*
X1904762Y-2462619D01*
X1904762Y-2462619D02*
X2095238Y-2462619D01*
X2095238Y-2462619D02*
X2190476Y-2415000D01*
X2190476Y-2415000D02*
X2238095Y-2367380D01*
X2238095Y-2367380D02*
X2285714Y-2272142D01*
X2285714Y-2272142D02*
X2285714Y-2034047D01*
X2285714Y-2034047D02*
X2238095Y-1938809D01*
X2238095Y-1938809D02*
X2190476Y-1891190D01*
X2190476Y-1891190D02*
X2095238Y-1843571D01*
X2095238Y-1843571D02*
X1904762Y-1843571D01*
X1904762Y-1843571D02*
X1809524Y-1891190D01*
X1809524Y-1891190D02*
X1761905Y-1938809D01*
X1761905Y-1938809D02*
X1714286Y-2034047D01*
X-7714285Y-2462619D02*
X-8285713Y-2462619D01*
X-7999999Y-2462619D02*
X-7999999Y-1462619D01*
X-7999999Y-1462619D02*
X-8095237Y-1605476D01*
X-8095237Y-1605476D02*
X-8190475Y-1700714D01*
X-8190475Y-1700714D02*
X-8285713Y-1748333D01*
X-7071428Y2537380D02*
X-7071428Y3537380D01*
X-7071428Y3156428D02*
X-6976190Y3204047D01*
X-6976190Y3204047D02*
X-6785714Y3204047D01*
X-6785714Y3204047D02*
X-6690476Y3156428D01*
X-6690476Y3156428D02*
X-6642857Y3108809D01*
X-6642857Y3108809D02*
X-6595238Y3013571D01*
X-6595238Y3013571D02*
X-6595238Y2727857D01*
X-6595238Y2727857D02*
X-6642857Y2632619D01*
X-6642857Y2632619D02*
X-6690476Y2585000D01*
X-6690476Y2585000D02*
X-6785714Y2537380D01*
X-6785714Y2537380D02*
X-6976190Y2537380D01*
X-6976190Y2537380D02*
X-7071428Y2585000D01*
X-6166666Y2537380D02*
X-6166666Y3204047D01*
X-6166666Y3013571D02*
X-6119047Y3108809D01*
X-6119047Y3108809D02*
X-6071428Y3156428D01*
X-6071428Y3156428D02*
X-5976190Y3204047D01*
X-5976190Y3204047D02*
X-5880952Y3204047D01*
X-5547618Y2537380D02*
X-5547618Y3204047D01*
X-5547618Y3537380D02*
X-5595237Y3489761D01*
X-5595237Y3489761D02*
X-5547618Y3442142D01*
X-5547618Y3442142D02*
X-5499999Y3489761D01*
X-5499999Y3489761D02*
X-5547618Y3537380D01*
X-5547618Y3537380D02*
X-5547618Y3442142D01*
X-4642857Y2537380D02*
X-4642857Y3537380D01*
X-4642857Y2585000D02*
X-4738095Y2537380D01*
X-4738095Y2537380D02*
X-4928571Y2537380D01*
X-4928571Y2537380D02*
X-5023809Y2585000D01*
X-5023809Y2585000D02*
X-5071428Y2632619D01*
X-5071428Y2632619D02*
X-5119047Y2727857D01*
X-5119047Y2727857D02*
X-5119047Y3013571D01*
X-5119047Y3013571D02*
X-5071428Y3108809D01*
X-5071428Y3108809D02*
X-5023809Y3156428D01*
X-5023809Y3156428D02*
X-4928571Y3204047D01*
X-4928571Y3204047D02*
X-4738095Y3204047D01*
X-4738095Y3204047D02*
X-4642857Y3156428D01*
X-3738095Y3204047D02*
X-3738095Y2394523D01*
X-3738095Y2394523D02*
X-3785714Y2299285D01*
X-3785714Y2299285D02*
X-3833333Y2251666D01*
X-3833333Y2251666D02*
X-3928571Y2204047D01*
X-3928571Y2204047D02*
X-4071428Y2204047D01*
X-4071428Y2204047D02*
X-4166666Y2251666D01*
X-3738095Y2585000D02*
X-3833333Y2537380D01*
X-3833333Y2537380D02*
X-4023809Y2537380D01*
X-4023809Y2537380D02*
X-4119047Y2585000D01*
X-4119047Y2585000D02*
X-4166666Y2632619D01*
X-4166666Y2632619D02*
X-4214285Y2727857D01*
X-4214285Y2727857D02*
X-4214285Y3013571D01*
X-4214285Y3013571D02*
X-4166666Y3108809D01*
X-4166666Y3108809D02*
X-4119047Y3156428D01*
X-4119047Y3156428D02*
X-4023809Y3204047D01*
X-4023809Y3204047D02*
X-3833333Y3204047D01*
X-3833333Y3204047D02*
X-3738095Y3156428D01*
X-2880952Y2585000D02*
X-2976190Y2537380D01*
X-2976190Y2537380D02*
X-3166666Y2537380D01*
X-3166666Y2537380D02*
X-3261904Y2585000D01*
X-3261904Y2585000D02*
X-3309523Y2680238D01*
X-3309523Y2680238D02*
X-3309523Y3061190D01*
X-3309523Y3061190D02*
X-3261904Y3156428D01*
X-3261904Y3156428D02*
X-3166666Y3204047D01*
X-3166666Y3204047D02*
X-2976190Y3204047D01*
X-2976190Y3204047D02*
X-2880952Y3156428D01*
X-2880952Y3156428D02*
X-2833333Y3061190D01*
X-2833333Y3061190D02*
X-2833333Y2965952D01*
X-2833333Y2965952D02*
X-3309523Y2870714D01*
X-2404761Y2537380D02*
X-2404761Y3537380D01*
X-2404761Y3537380D02*
X-2166666Y3537380D01*
X-2166666Y3537380D02*
X-2023809Y3489761D01*
X-2023809Y3489761D02*
X-1928571Y3394523D01*
X-1928571Y3394523D02*
X-1880952Y3299285D01*
X-1880952Y3299285D02*
X-1833333Y3108809D01*
X-1833333Y3108809D02*
X-1833333Y2965952D01*
X-1833333Y2965952D02*
X-1880952Y2775476D01*
X-1880952Y2775476D02*
X-1928571Y2680238D01*
X-1928571Y2680238D02*
X-2023809Y2585000D01*
X-2023809Y2585000D02*
X-2166666Y2537380D01*
X-2166666Y2537380D02*
X-2404761Y2537380D01*
X-1452380Y2585000D02*
X-1309523Y2537380D01*
X-1309523Y2537380D02*
X-1071428Y2537380D01*
X-1071428Y2537380D02*
X-976190Y2585000D01*
X-976190Y2585000D02*
X-928571Y2632619D01*
X-928571Y2632619D02*
X-880952Y2727857D01*
X-880952Y2727857D02*
X-880952Y2823095D01*
X-880952Y2823095D02*
X-928571Y2918333D01*
X-928571Y2918333D02*
X-976190Y2965952D01*
X-976190Y2965952D02*
X-1071428Y3013571D01*
X-1071428Y3013571D02*
X-1261904Y3061190D01*
X-1261904Y3061190D02*
X-1357142Y3108809D01*
X-1357142Y3108809D02*
X-1404761Y3156428D01*
X-1404761Y3156428D02*
X-1452380Y3251666D01*
X-1452380Y3251666D02*
X-1452380Y3346904D01*
X-1452380Y3346904D02*
X-1404761Y3442142D01*
X-1404761Y3442142D02*
X-1357142Y3489761D01*
X-1357142Y3489761D02*
X-1261904Y3537380D01*
X-1261904Y3537380D02*
X-1023809Y3537380D01*
X-1023809Y3537380D02*
X-880952Y3489761D01*
X-452380Y3537380D02*
X-452380Y2727857D01*
X-452380Y2727857D02*
X-404761Y2632619D01*
X-404761Y2632619D02*
X-357142Y2585000D01*
X-357142Y2585000D02*
X-261904Y2537380D01*
X-261904Y2537380D02*
X-71428Y2537380D01*
X-71428Y2537380D02*
X23809Y2585000D01*
X23809Y2585000D02*
X71428Y2632619D01*
X71428Y2632619D02*
X119047Y2727857D01*
X119047Y2727857D02*
X119047Y3537380D01*
X928571Y3061190D02*
X1071428Y3013571D01*
X1071428Y3013571D02*
X1119047Y2965952D01*
X1119047Y2965952D02*
X1166666Y2870714D01*
X1166666Y2870714D02*
X1166666Y2727857D01*
X1166666Y2727857D02*
X1119047Y2632619D01*
X1119047Y2632619D02*
X1071428Y2585000D01*
X1071428Y2585000D02*
X976190Y2537380D01*
X976190Y2537380D02*
X595238Y2537380D01*
X595238Y2537380D02*
X595238Y3537380D01*
X595238Y3537380D02*
X928571Y3537380D01*
X928571Y3537380D02*
X1023809Y3489761D01*
X1023809Y3489761D02*
X1071428Y3442142D01*
X1071428Y3442142D02*
X1119047Y3346904D01*
X1119047Y3346904D02*
X1119047Y3251666D01*
X1119047Y3251666D02*
X1071428Y3156428D01*
X1071428Y3156428D02*
X1023809Y3108809D01*
X1023809Y3108809D02*
X928571Y3061190D01*
X928571Y3061190D02*
X595238Y3061190D01*
X1642857Y2537380D02*
X1833333Y2537380D01*
X1833333Y2537380D02*
X1928571Y2585000D01*
X1928571Y2585000D02*
X1976190Y2632619D01*
X1976190Y2632619D02*
X2071428Y2775476D01*
X2071428Y2775476D02*
X2119047Y2965952D01*
X2119047Y2965952D02*
X2119047Y3346904D01*
X2119047Y3346904D02*
X2071428Y3442142D01*
X2071428Y3442142D02*
X2023809Y3489761D01*
X2023809Y3489761D02*
X1928571Y3537380D01*
X1928571Y3537380D02*
X1738095Y3537380D01*
X1738095Y3537380D02*
X1642857Y3489761D01*
X1642857Y3489761D02*
X1595238Y3442142D01*
X1595238Y3442142D02*
X1547619Y3346904D01*
X1547619Y3346904D02*
X1547619Y3108809D01*
X1547619Y3108809D02*
X1595238Y3013571D01*
X1595238Y3013571D02*
X1642857Y2965952D01*
X1642857Y2965952D02*
X1738095Y2918333D01*
X1738095Y2918333D02*
X1928571Y2918333D01*
X1928571Y2918333D02*
X2023809Y2965952D01*
X2023809Y2965952D02*
X2071428Y3013571D01*
X2071428Y3013571D02*
X2119047Y3108809D01*
X2547619Y2537380D02*
X2547619Y3537380D01*
X2547619Y3537380D02*
X2928571Y3537380D01*
X2928571Y3537380D02*
X3023809Y3489761D01*
X3023809Y3489761D02*
X3071428Y3442142D01*
X3071428Y3442142D02*
X3119047Y3346904D01*
X3119047Y3346904D02*
X3119047Y3204047D01*
X3119047Y3204047D02*
X3071428Y3108809D01*
X3071428Y3108809D02*
X3023809Y3061190D01*
X3023809Y3061190D02*
X2928571Y3013571D01*
X2928571Y3013571D02*
X2547619Y3013571D01*
X4166667Y3537380D02*
X4500000Y2537380D01*
X4500000Y2537380D02*
X4833333Y3537380D01*
X5690476Y2537380D02*
X5119048Y2537380D01*
X5404762Y2537380D02*
X5404762Y3537380D01*
X5404762Y3537380D02*
X5309524Y3394523D01*
X5309524Y3394523D02*
X5214286Y3299285D01*
X5214286Y3299285D02*
X5119048Y3251666D01*
X6119048Y2632619D02*
X6166667Y2585000D01*
X6166667Y2585000D02*
X6119048Y2537380D01*
X6119048Y2537380D02*
X6071429Y2585000D01*
X6071429Y2585000D02*
X6119048Y2632619D01*
X6119048Y2632619D02*
X6119048Y2537380D01*
X6785714Y3537380D02*
X6880952Y3537380D01*
X6880952Y3537380D02*
X6976190Y3489761D01*
X6976190Y3489761D02*
X7023809Y3442142D01*
X7023809Y3442142D02*
X7071428Y3346904D01*
X7071428Y3346904D02*
X7119047Y3156428D01*
X7119047Y3156428D02*
X7119047Y2918333D01*
X7119047Y2918333D02*
X7071428Y2727857D01*
X7071428Y2727857D02*
X7023809Y2632619D01*
X7023809Y2632619D02*
X6976190Y2585000D01*
X6976190Y2585000D02*
X6880952Y2537380D01*
X6880952Y2537380D02*
X6785714Y2537380D01*
X6785714Y2537380D02*
X6690476Y2585000D01*
X6690476Y2585000D02*
X6642857Y2632619D01*
X6642857Y2632619D02*
X6595238Y2727857D01*
X6595238Y2727857D02*
X6547619Y2918333D01*
X6547619Y2918333D02*
X6547619Y3156428D01*
X6547619Y3156428D02*
X6595238Y3346904D01*
X6595238Y3346904D02*
X6642857Y3442142D01*
X6642857Y3442142D02*
X6690476Y3489761D01*
X6690476Y3489761D02*
X6785714Y3537380D01*
X-6285713Y-1557857D02*
X-6238094Y-1510238D01*
X-6238094Y-1510238D02*
X-6142856Y-1462619D01*
X-6142856Y-1462619D02*
X-5904761Y-1462619D01*
X-5904761Y-1462619D02*
X-5809523Y-1510238D01*
X-5809523Y-1510238D02*
X-5761904Y-1557857D01*
X-5761904Y-1557857D02*
X-5714285Y-1653095D01*
X-5714285Y-1653095D02*
X-5714285Y-1748333D01*
X-5714285Y-1748333D02*
X-5761904Y-1891190D01*
X-5761904Y-1891190D02*
X-6333332Y-2462619D01*
X-6333332Y-2462619D02*
X-5714285Y-2462619D01*
X-4333332Y-1462619D02*
X-3714285Y-1462619D01*
X-3714285Y-1462619D02*
X-4047618Y-1843571D01*
X-4047618Y-1843571D02*
X-3904761Y-1843571D01*
X-3904761Y-1843571D02*
X-3809523Y-1891190D01*
X-3809523Y-1891190D02*
X-3761904Y-1938809D01*
X-3761904Y-1938809D02*
X-3714285Y-2034047D01*
X-3714285Y-2034047D02*
X-3714285Y-2272142D01*
X-3714285Y-2272142D02*
X-3761904Y-2367380D01*
X-3761904Y-2367380D02*
X-3809523Y-2415000D01*
X-3809523Y-2415000D02*
X-3904761Y-2462619D01*
X-3904761Y-2462619D02*
X-4190475Y-2462619D01*
X-4190475Y-2462619D02*
X-4285713Y-2415000D01*
X-4285713Y-2415000D02*
X-4333332Y-2367380D01*
X-1809523Y-1795952D02*
X-1809523Y-2462619D01*
X-2047618Y-1415000D02*
X-2285713Y-2129285D01*
X-2285713Y-2129285D02*
X-1666666Y-2129285D01*
X238095Y-1462619D02*
X-238094Y-1462619D01*
X-238094Y-1462619D02*
X-285713Y-1938809D01*
X-285713Y-1938809D02*
X-238094Y-1891190D01*
X-238094Y-1891190D02*
X-142856Y-1843571D01*
X-142856Y-1843571D02*
X95238Y-1843571D01*
X95238Y-1843571D02*
X190476Y-1891190D01*
X190476Y-1891190D02*
X238095Y-1938809D01*
X238095Y-1938809D02*
X285714Y-2034047D01*
X285714Y-2034047D02*
X285714Y-2272142D01*
X285714Y-2272142D02*
X238095Y-2367380D01*
X238095Y-2367380D02*
X190476Y-2415000D01*
X190476Y-2415000D02*
X95238Y-2462619D01*
X95238Y-2462619D02*
X-142856Y-2462619D01*
X-142856Y-2462619D02*
X-238094Y-2415000D01*
X-238094Y-2415000D02*
X-285713Y-2367380D01*
X5904762Y-1891190D02*
X5809524Y-1843571D01*
X5809524Y-1843571D02*
X5761905Y-1795952D01*
X5761905Y-1795952D02*
X5714286Y-1700714D01*
X5714286Y-1700714D02*
X5714286Y-1653095D01*
X5714286Y-1653095D02*
X5761905Y-1557857D01*
X5761905Y-1557857D02*
X5809524Y-1510238D01*
X5809524Y-1510238D02*
X5904762Y-1462619D01*
X5904762Y-1462619D02*
X6095238Y-1462619D01*
X6095238Y-1462619D02*
X6190476Y-1510238D01*
X6190476Y-1510238D02*
X6238095Y-1557857D01*
X6238095Y-1557857D02*
X6285714Y-1653095D01*
X6285714Y-1653095D02*
X6285714Y-1700714D01*
X6285714Y-1700714D02*
X6238095Y-1795952D01*
X6238095Y-1795952D02*
X6190476Y-1843571D01*
X6190476Y-1843571D02*
X6095238Y-1891190D01*
X6095238Y-1891190D02*
X5904762Y-1891190D01*
X5904762Y-1891190D02*
X5809524Y-1938809D01*
X5809524Y-1938809D02*
X5761905Y-1986428D01*
X5761905Y-1986428D02*
X5714286Y-2081666D01*
X5714286Y-2081666D02*
X5714286Y-2272142D01*
X5714286Y-2272142D02*
X5761905Y-2367380D01*
X5761905Y-2367380D02*
X5809524Y-2415000D01*
X5809524Y-2415000D02*
X5904762Y-2462619D01*
X5904762Y-2462619D02*
X6095238Y-2462619D01*
X6095238Y-2462619D02*
X6190476Y-2415000D01*
X6190476Y-2415000D02*
X6238095Y-2367380D01*
X6238095Y-2367380D02*
X6285714Y-2272142D01*
X6285714Y-2272142D02*
X6285714Y-2081666D01*
X6285714Y-2081666D02*
X6238095Y-1986428D01*
X6238095Y-1986428D02*
X6190476Y-1938809D01*
X6190476Y-1938809D02*
X6095238Y-1891190D01*
X7809524Y-2462619D02*
X8000000Y-2462619D01*
X8000000Y-2462619D02*
X8095238Y-2415000D01*
X8095238Y-2415000D02*
X8142857Y-2367380D01*
X8142857Y-2367380D02*
X8238095Y-2224523D01*
X8238095Y-2224523D02*
X8285714Y-2034047D01*
X8285714Y-2034047D02*
X8285714Y-1653095D01*
X8285714Y-1653095D02*
X8238095Y-1557857D01*
X8238095Y-1557857D02*
X8190476Y-1510238D01*
X8190476Y-1510238D02*
X8095238Y-1462619D01*
X8095238Y-1462619D02*
X7904762Y-1462619D01*
X7904762Y-1462619D02*
X7809524Y-1510238D01*
X7809524Y-1510238D02*
X7761905Y-1557857D01*
X7761905Y-1557857D02*
X7714286Y-1653095D01*
X7714286Y-1653095D02*
X7714286Y-1891190D01*
X7714286Y-1891190D02*
X7761905Y-1986428D01*
X7761905Y-1986428D02*
X7809524Y-2034047D01*
X7809524Y-2034047D02*
X7904762Y-2081666D01*
X7904762Y-2081666D02*
X8095238Y-2081666D01*
X8095238Y-2081666D02*
X8190476Y-2034047D01*
X8190476Y-2034047D02*
X8238095Y-1986428D01*
X8238095Y-1986428D02*
X8285714Y-1891190D01*
M02*
